<svg xmlns="http://www.w3.org/2000/svg" width="196.481" height="194.406" viewBox="0 0 196.481 194.406">
  <g id="Grupo_10907" data-name="Grupo 10907" transform="translate(11562.677 2611.229)">
    <path id="Trazado_8320" data-name="Trazado 8320" d="M395.168,385.2c-1.428-2.724-7.23-4.912-9.827-5.408-13.86-2.645-28.377-2.276-42.417-2.232-15.291.048-29.879,2.5-45.044,3.629-7.886.587-16.219-.471-24.123-.745q-19.523-.676-39.039-1.588c-11.217-.523-22.859.65-32.754,6.835a6.435,6.435,0,0,0-2.772,2.814c-3.214,7.924,36.844,6.928,42.063,7.064,26.326.685,52.669,1.039,79,.327,19.576-.53,39.978-.5,59.393-3.26,4.293-.611,10.136-.83,13.845-3.357C395.544,387.885,395.84,386.486,395.168,385.2Z" transform="translate(-11761.687 -2813.115)" fill="#e7f5fe"/>
    <g id="freepik--Character--inject-31" transform="translate(-11553.058 -2611.229)">
      <path id="Trazado_8229" data-name="Trazado 8229" d="M122.318,192.2c-.513,1.166-1.078,2.425-1.574,3.655s-1.008,2.495-1.457,3.754a53.247,53.247,0,0,0-2.209,7.537l-.169.933-.058.35a1.21,1.21,0,0,1-.035.344,14.3,14.3,0,0,0,.035,1.7,34.335,34.335,0,0,0,.583,3.865c.49,2.64,1.113,5.363,1.749,8.044l-2.99,1.166a54,54,0,0,1-3.55-7.921,33.224,33.224,0,0,1-1.236-4.354,15.628,15.628,0,0,1-.326-2.483c0-.233,0-.455,0-.705a3.488,3.488,0,0,1,.041-.694l.117-1.166a36.722,36.722,0,0,1,.8-4.459c.326-1.457.746-2.874,1.166-4.273s.944-2.775,1.5-4.127c.274-.676.583-1.346.851-2.017a22.335,22.335,0,0,1,.956-2.028Z" transform="translate(-97.011 -134.208)" fill="#e4897b"/>
      <path id="Trazado_8230" data-name="Trazado 8230" d="M122.314,244.69l2.273,2.221-4.96,2.332a4.99,4.99,0,0,1-.367-4Z" transform="translate(-100.299 -157.304)" fill="#e4897b"/>
      <path id="Trazado_8231" data-name="Trazado 8231" d="M126.9,251.8l-4.191,1.714-2.6-2.71,4.955-2.308Z" transform="translate(-100.777 -158.893)" fill="#e4897b"/>
      <path id="Trazado_8232" data-name="Trazado 8232" d="M250.726,190.191a41.968,41.968,0,1,1,46.392-37.054A41.968,41.968,0,0,1,250.726,190.191Z" transform="translate(-139.705 -99.668)" fill="#fafafa" opacity="0.4"/>
      <path id="Trazado_8233" data-name="Trazado 8233" d="M281.388,116.968l-63.826,51c-.268-.583-.53-1.166-.775-1.749a41.525,41.525,0,0,1-3.037-11.938h0l55.129-44.049a41.472,41.472,0,0,1,12.509,6.738Z" transform="translate(-139.836 -101.219)" fill="#fafafa" opacity="0.4"/>
      <path id="Trazado_8234" data-name="Trazado 8234" d="M301.786,148.086l-60.008,47.942a41.886,41.886,0,0,1-14.438-12.4l65.522-52.355a41.968,41.968,0,0,1,8.924,16.816Z" transform="translate(-145.504 -109.995)" fill="#fafafa" opacity="0.4"/>
      <path id="Trazado_8235" data-name="Trazado 8235" d="M203.994,128.726l-.554-.187a51.108,51.108,0,0,1,3.6-8.19l.507.28a50.672,50.672,0,0,0-3.556,8.1Zm7.076-13.6-.472-.344A50.536,50.536,0,0,1,228.883,99.5l.262.525a49.977,49.977,0,0,0-18.075,15.114Zm63.879-14.3a48.731,48.731,0,0,0-5.9-2.675l.21-.548a49.908,49.908,0,0,1,5.957,2.728Z" transform="translate(-135.535 -95.951)" fill="#407bff"/>
      <path id="Trazado_8236" data-name="Trazado 8236" d="M203.994,128.726l-.554-.187a51.108,51.108,0,0,1,3.6-8.19l.507.28a50.672,50.672,0,0,0-3.556,8.1Zm7.076-13.6-.472-.344A50.536,50.536,0,0,1,228.883,99.5l.262.525a49.977,49.977,0,0,0-18.075,15.114Zm63.879-14.3a48.731,48.731,0,0,0-5.9-2.675l.21-.548a49.908,49.908,0,0,1,5.957,2.728Z" transform="translate(-135.535 -95.951)" opacity="0.3"/>
      <path id="Trazado_8237" data-name="Trazado 8237" d="M254.224,122.148a48.38,48.38,0,0,0-88.978,37.73c-3.894,1.364-7.741,2.827-11.564,4.337q-8.271,3.282-16.391,6.855c-5.409,2.4-10.8,4.838-16.128,7.391-2.675,1.253-5.316,2.576-7.98,3.859a11.535,11.535,0,0,0-3.7,2.536,11.163,11.163,0,0,0-1.5,1.964,10.055,10.055,0,0,0-1.166,2.7,7.414,7.414,0,0,0,4.273,8.656,10.236,10.236,0,0,0,2.833.734,11,11,0,0,0,2.477,0,11.518,11.518,0,0,0,4.255-1.393c2.64-1.335,5.3-2.623,7.921-3.993,5.246-2.675,10.492-5.467,15.674-8.3s10.37-5.8,15.429-8.842c3.5-2.116,7.03-4.278,10.492-6.54a48.38,48.38,0,0,0,84.058-47.692Zm-26.5,55.683a38.2,38.2,0,1,1,17.341-51.166,38.2,38.2,0,0,1-17.341,51.166Z" transform="translate(-95.138 -94.77)" fill="#407bff"/>
      <path id="Trazado_8238" data-name="Trazado 8238" d="M254.224,122.148a48.38,48.38,0,0,0-88.978,37.73c-3.894,1.364-7.741,2.827-11.564,4.337q-8.271,3.282-16.391,6.855c-5.409,2.4-10.8,4.838-16.128,7.391-2.675,1.253-5.316,2.576-7.98,3.859a11.535,11.535,0,0,0-3.7,2.536,11.163,11.163,0,0,0-1.5,1.964,10.055,10.055,0,0,0-1.166,2.7,7.414,7.414,0,0,0,4.273,8.656,10.236,10.236,0,0,0,2.833.734,11,11,0,0,0,2.477,0,11.518,11.518,0,0,0,4.255-1.393c2.64-1.335,5.3-2.623,7.921-3.993,5.246-2.675,10.492-5.467,15.674-8.3s10.37-5.8,15.429-8.842c3.5-2.116,7.03-4.278,10.492-6.54a48.38,48.38,0,0,0,84.058-47.692Zm-26.5,55.683a38.2,38.2,0,1,1,17.341-51.166,38.2,38.2,0,0,1-17.341,51.166Z" transform="translate(-95.138 -94.77)" opacity="0.3"/>
      <path id="Trazado_8239" data-name="Trazado 8239" d="M158,158.1c0,.344.181.624.408.624s.408-.28.408-.624-.181-.624-.408-.624S158,157.783,158,158.1Z" transform="translate(-116.582 -120.927)" fill="#263238"/>
      <path id="Trazado_8240" data-name="Trazado 8240" d="M158.28,159.62a12.433,12.433,0,0,0,1.65,2.955,1.988,1.988,0,0,1-1.65.309Z" transform="translate(-116.698 -121.82)" fill="#de5753"/>
      <path id="Trazado_8241" data-name="Trazado 8241" d="M155.783,154.706a.216.216,0,0,1-.169-.082.21.21,0,0,1,.047-.286,2,2,0,0,1,1.824-.309.2.2,0,1,1-.146.379,1.591,1.591,0,0,0-1.44.262A.21.21,0,0,1,155.783,154.706Z" transform="translate(-115.571 -119.448)" fill="#263238"/>
      <path id="Trazado_8242" data-name="Trazado 8242" d="M137.108,163c.583,3.13,1.224,8.872-.968,10.964,0,0,.857,3.177,6.68,3.177,6.412,0,3.054-3.177,3.054-3.177-3.5-.839-3.4-3.427-2.792-5.864Z" transform="translate(-107.463 -123.23)" fill="#e4897b"/>
      <path id="Trazado_8243" data-name="Trazado 8243" d="M131.312,181.4c.694-1.078-.472-3.7-.472-3.7s10.305-2.594,14.52,1.387c.874.822-.093,2.034-.093,2.034Z" transform="translate(-105.253 -129.017)" fill="#407bff"/>
      <path id="Trazado_8244" data-name="Trazado 8244" d="M131.312,181.4c.694-1.078-.472-3.7-.472-3.7s10.305-2.594,14.52,1.387c.874.822-.093,2.034-.093,2.034Z" transform="translate(-105.253 -129.017)" opacity="0.1"/>
      <path id="Trazado_8245" data-name="Trazado 8245" d="M101.195,387.665c-.542,0-1.411-.9-1.667-1.242a.1.1,0,0,1,0-.111.1.1,0,0,1,.093-.052c.064,0,1.492.128,1.883.635a.472.472,0,0,1,.093.385.42.42,0,0,1-.3.379ZM99.843,386.5c.426.49,1.107,1.043,1.4.973,0,0,.117-.029.152-.216a.262.262,0,0,0-.058-.221,2.722,2.722,0,0,0-1.492-.548Z" transform="translate(-92.185 -216.354)" fill="#407bff"/>
      <path id="Trazado_8246" data-name="Trazado 8246" d="M99.9,385.866a1.559,1.559,0,0,1-.315,0,.093.093,0,0,1-.082-.064.117.117,0,0,1,0-.1c.041-.035.9-.927,1.545-.927h0a.548.548,0,0,1,.414.175.332.332,0,0,1,.082.408C101.372,385.679,100.48,385.866,99.9,385.866Zm-.076-.2c.583,0,1.428-.181,1.568-.437,0,0,.041-.076-.052-.169a.344.344,0,0,0-.268-.111h0a2.466,2.466,0,0,0-1.247.717Z" transform="translate(-92.176 -215.733)" fill="#407bff"/>
      <path id="Trazado_8247" data-name="Trazado 8247" d="M167.392,410.623a7.727,7.727,0,0,1-1.317-.122.093.093,0,0,1-.076-.093.1.1,0,0,1,.047-.1c.064-.035,1.556-.892,2.273-.694a.5.5,0,0,1,.321.233.385.385,0,0,1,0,.443C168.47,410.547,167.94,410.623,167.392,410.623Zm-.985-.274c.793.117,1.877.111,2.075-.169.029-.035.052-.1,0-.221a.326.326,0,0,0-.2-.146A3.657,3.657,0,0,0,166.407,410.349Z" transform="translate(-119.917 -226.081)" fill="#407bff"/>
      <path id="Trazado_8248" data-name="Trazado 8248" d="M166.1,409.792a.1.1,0,0,1-.058,0,.093.093,0,0,1-.041-.1,2.845,2.845,0,0,1,.665-1.65.729.729,0,0,1,.583-.169.336.336,0,0,1,.379.28c.076.484-.944,1.411-1.463,1.644Zm1.043-1.749a.531.531,0,0,0-.35.128,2.332,2.332,0,0,0-.583,1.323c.525-.321,1.224-1.043,1.166-1.335,0,0,0-.1-.2-.117Z" transform="translate(-119.917 -225.367)" fill="#407bff"/>
      <path id="Trazado_8249" data-name="Trazado 8249" d="M158.09,403.895h4.284l.426-9.915h-4.284Z" transform="translate(-116.619 -219.575)" fill="#e4897b"/>
      <path id="Trazado_8250" data-name="Trazado 8250" d="M92.64,377.01l3.579,2.343,7.9-6.674-3.585-2.349Z" transform="translate(-89.319 -209.71)" fill="#e4897b"/>
      <path id="Trazado_8251" data-name="Trazado 8251" d="M94.431,383.189l-3.719-3.048a.367.367,0,0,0-.466,0l-3.066,2.407a.63.63,0,0,0,0,.985c1.317,1.043,2.011,1.486,3.649,2.827,1.008.822,3.5,3.34,4.9,4.477s2.693-.087,2.227-.676a14.686,14.686,0,0,1-3.153-6.324A1.055,1.055,0,0,0,94.431,383.189Z" transform="translate(-86.943 -213.767)" fill="#263238"/>
      <path id="Trazado_8252" data-name="Trazado 8252" d="M161.174,410.14h-4.663a.379.379,0,0,0-.367.291l-.845,3.806a.624.624,0,0,0,.618.764c1.685-.029,4.121-.128,6.243-.128,2.477,0,4.622.134,7.525.134,1.749,0,2.25-1.778,1.51-1.935-3.346-.734-6.085-.81-8.976-2.6A2,2,0,0,0,161.174,410.14Z" transform="translate(-115.448 -226.315)" fill="#263238"/>
      <path id="Trazado_8253" data-name="Trazado 8253" d="M117.489,183.656c-3.713,1.749-5.829,13.465-5.829,13.465l9.076,3.62a67.514,67.514,0,0,0,3.212-10C125.195,185.347,121.289,181.85,117.489,183.656Z" transform="translate(-97.253 -131.646)" fill="#d9f0ff"/>
      <path id="Trazado_8254" data-name="Trazado 8254" d="M127.259,194.977c-2.244,2.273-3.27,6.727-3.719,9.623l2.174.868a68.023,68.023,0,0,0,3.148-9.705C128.669,194.529,128.191,194.033,127.259,194.977Z" transform="translate(-102.208 -136.363)" fill="#94c1f2"/>
      <path id="Trazado_8255" data-name="Trazado 8255" d="M146.976,182.91s4.558,5.153.256,37.013h-22.9c-.157-3.5,2.052-20.663-1.341-37.229a58.618,58.618,0,0,1,7.665-.968,82.109,82.109,0,0,1,9.734,0,43.244,43.244,0,0,1,6.587,1.183Z" transform="translate(-101.978 -130.981)" fill="#d9f0ff"/>
      <path id="Trazado_8256" data-name="Trazado 8256" d="M164.3,200.321l-3.859-6.651a33.988,33.988,0,0,0-.9,9.484c.1,2.285,2.2,10.748,4.08,11.984A134.556,134.556,0,0,0,164.3,200.321Z" transform="translate(-117.207 -136.023)" fill="#94c1f2"/>
      <path id="Trazado_8257" data-name="Trazado 8257" d="M164.1,191.67c.583,2.833,1.166,5.736,1.789,8.58s1.271,5.7,2.023,8.458c.192.682.373,1.381.583,2.034l.157.5.076.251v-.029c-.041-.052-.087-.058-.052,0a1.953,1.953,0,0,0,.886.554,10.4,10.4,0,0,0,1.7.472,45.344,45.344,0,0,0,8.335.542l.554,3.171c-.781.251-1.51.431-2.279.612s-1.527.332-2.3.449a24.9,24.9,0,0,1-4.855.326,13.181,13.181,0,0,1-2.681-.35,7.8,7.8,0,0,1-3.078-1.428,5.624,5.624,0,0,1-1.44-1.749c-.093-.175-.175-.373-.251-.542l-.1-.274-.216-.583c-.3-.74-.542-1.469-.81-2.2-.985-2.914-1.807-5.858-2.53-8.8s-1.346-5.87-1.865-8.883Z" transform="translate(-116.469 -135.188)" fill="#e4897b"/>
      <path id="Trazado_8258" data-name="Trazado 8258" d="M154.193,186.8c-1.207,3.911,3.684,15.575,3.684,15.575l9.74-2.448a35.283,35.283,0,0,0-2.594-10.871C161.677,181.805,155.639,182.108,154.193,186.8Z" transform="translate(-114.914 -131.747)" fill="#d9f0ff"/>
      <path id="Trazado_8259" data-name="Trazado 8259" d="M193.1,228.232l4.85-.122-2.332,5.048s-1.976.262-3.6-2.4l-1.708-2.04,1.964-.391a4.384,4.384,0,0,1,.822-.093Z" transform="translate(-130.058 -150.388)" fill="#e4897b"/>
      <path id="Trazado_8260" data-name="Trazado 8260" d="M204.8,229.048l-2.775,4.185-2.617-.076,2.332-5.048Z" transform="translate(-133.854 -150.388)" fill="#e4897b"/>
      <path id="Trazado_8261" data-name="Trazado 8261" d="M162.946,393.98l-.222,5.112H158.44l.221-5.112Z" transform="translate(-116.765 -219.575)" fill="#ce6f64"/>
      <path id="Trazado_8262" data-name="Trazado 8262" d="M103.274,370.33l3.585,2.349-4.08,3.439L99.2,373.775Z" transform="translate(-92.055 -209.71)" fill="#ce6f64"/>
      <path id="Trazado_8263" data-name="Trazado 8263" d="M138.25,152.826c.256,4.238.192,6.738,2.332,8.912,3.218,3.282,8.458,1.341,9.472-2.914.915-3.812.344-10.107-3.806-11.8a5.829,5.829,0,0,0-8,5.8Z" transform="translate(-108.338 -116.39)" fill="#e4897b"/>
      <path id="Trazado_8264" data-name="Trazado 8264" d="M129.6,148.662c1.055,3.865,3.538,8.318,6.75,8.6,3.987.35,5.788-3.771,6.313-8.026,2.39-1.638,1.137-3.439,3.532-3.666,3.078-.291,2.093-5.922-1.959-6.826,0,0,1.358,2.536-1.492,1.253a16.449,16.449,0,0,0-8.708-1.51s3.637,1.819.082,2.629-4.616,3-2.979,4.325A2.472,2.472,0,0,0,129.6,148.662Z" transform="translate(-104.682 -112.972)" fill="#263238"/>
      <path id="Trazado_8265" data-name="Trazado 8265" d="M147.937,157.21a4.791,4.791,0,0,0,1.207,2.839c.933,1.032,1.906.391,2.069-.863.152-1.125-.157-3.019-1.3-3.591S147.861,155.94,147.937,157.21Z" transform="translate(-112.382 -120.069)" fill="#e4897b"/>
      <path id="Trazado_8266" data-name="Trazado 8266" d="M128.454,247.356s4.173,30.223.886,42.335c-5.211,19.177-25.134,35.364-25.134,35.364l-6.756-4.43s16.968-13.669,19.043-29.727c1.865-14.415-2.815-31.849-2.815-43.547Z" transform="translate(-91.325 -158.413)" fill="#407bff"/>
      <path id="Trazado_8267" data-name="Trazado 8267" d="M128.454,247.356s4.173,30.223.886,42.335c-5.211,19.177-25.134,35.364-25.134,35.364l-6.756-4.43s16.968-13.669,19.043-29.727c1.865-14.415-2.815-31.849-2.815-43.547Z" transform="translate(-91.325 -158.413)" fill="#26387a"/>
      <path id="Trazado_8268" data-name="Trazado 8268" d="M150.985,274.5a28.212,28.212,0,0,0-3.655-3.5c.711,9.81,1.294,24.341.647,34.664a44.544,44.544,0,0,0,2.168-6.1C151.748,293.645,151.579,283.427,150.985,274.5Z" transform="translate(-112.131 -168.278)" fill="#407bff"/>
      <path id="Trazado_8269" data-name="Trazado 8269" d="M150.985,274.5a28.212,28.212,0,0,0-3.655-3.5c.711,9.81,1.294,24.341.647,34.664a44.544,44.544,0,0,0,2.168-6.1C151.748,293.645,151.579,283.427,150.985,274.5Z" transform="translate(-112.131 -168.278)" fill="#0c206a"/>
      <path id="Trazado_8270" data-name="Trazado 8270" d="M106.557,374.479c.029,0-2.617,1.749-2.617,1.749l-7.379-4.838,2.332-1.929Z" transform="translate(-90.954 -209.347)" fill="#407bff"/>
      <path id="Trazado_8271" data-name="Trazado 8271" d="M106.557,374.479c.029,0-2.617,1.749-2.617,1.749l-7.379-4.838,2.332-1.929Z" transform="translate(-90.954 -209.347)" opacity="0.3"/>
      <path id="Trazado_8272" data-name="Trazado 8272" d="M153.806,247.36s6.447,27.337,6.9,40.4c.513,14.642-4.6,49.184-4.6,49.184h-7.257s-.892-34.81-1.212-48.146c-.356-14.543-8.889-41.437-8.889-41.437Z" transform="translate(-108.552 -158.417)" fill="#407bff"/>
      <path id="Trazado_8273" data-name="Trazado 8273" d="M153.806,247.36s6.447,27.337,6.9,40.4c.513,14.642-4.6,49.184-4.6,49.184h-7.257s-.892-34.81-1.212-48.146c-.356-14.543-8.889-41.437-8.889-41.437Z" transform="translate(-108.552 -158.417)" fill="#26387a"/>
      <path id="Trazado_8274" data-name="Trazado 8274" d="M164.142,396.1c.035,0-.408,3.008-.408,3.008h-8.825l-.239-2.687Z" transform="translate(-115.193 -220.459)" fill="#407bff"/>
      <path id="Trazado_8275" data-name="Trazado 8275" d="M164.142,396.1c.035,0-.408,3.008-.408,3.008h-8.825l-.239-2.687Z" transform="translate(-115.193 -220.459)" opacity="0.3"/>
    </g>
    <g id="freepik--character--inject-31-2" data-name="freepik--character--inject-31" transform="translate(-11426.748 -2574.75)">
      <path id="Trazado_8276" data-name="Trazado 8276" d="M353.814,202.29c.5.466.886.863,1.294,1.306s.793.874,1.166,1.323c.758.892,1.469,1.83,2.157,2.775a44.457,44.457,0,0,1,3.655,5.98l.216.426a4.106,4.106,0,0,1,.262.641,5.316,5.316,0,0,1,.256,1.317,6.411,6.411,0,0,1-.321,2.332,11.752,11.752,0,0,1-1.871,3.451,24.879,24.879,0,0,1-5.129,4.931l-1.451-1.667c.682-.8,1.393-1.655,2.028-2.512a21.425,21.425,0,0,0,1.749-2.623,9.109,9.109,0,0,0,1.061-2.576,2.67,2.67,0,0,0,.041-.991,1.292,1.292,0,0,0-.1-.321.929.929,0,0,0-.076-.128l-.187-.315a61.236,61.236,0,0,0-3.655-5.31c-.647-.857-1.341-1.679-2.04-2.489-.344-.408-.7-.8-1.055-1.2s-.74-.793-1.049-1.1Z" transform="translate(-323.294 -176.098)" fill="#e4897b"/>
      <path id="Trazado_8277" data-name="Trazado 8277" d="M354.244,240.081l-4.354-.711,2.279,3.812s2.8-.1,3.6-1.749Z" transform="translate(-322.931 -191.565)" fill="#e4897b"/>
      <path id="Trazado_8278" data-name="Trazado 8278" d="M344.37,241.13l2.075,3.1,3.422-1.043-2.279-3.812Z" transform="translate(-320.629 -191.565)" fill="#e4897b"/>
      <path id="Trazado_8279" data-name="Trazado 8279" d="M356.273,410.489a1.253,1.253,0,0,1-.833-.227.583.583,0,0,1-.169-.548.344.344,0,0,1,.2-.291c.507-.227,1.836.624,1.988.723a.105.105,0,0,1-.035.186,5.16,5.16,0,0,1-1.154.157Zm-.583-.9a.422.422,0,0,0-.128,0,.152.152,0,0,0-.087.134.391.391,0,0,0,.1.367,2.1,2.1,0,0,0,1.556.076A3.841,3.841,0,0,0,355.69,409.586Z" transform="translate(-325.17 -262.48)" fill="#407bff"/>
      <path id="Trazado_8280" data-name="Trazado 8280" d="M358.16,409.591h-.052c-.414-.239-1.212-1.166-1.113-1.673a.379.379,0,0,1,.35-.291.525.525,0,0,1,.437.14c.478.42.484,1.679.484,1.749a.111.111,0,0,1-.052.087Zm-.746-1.749h-.047c-.128,0-.157.07-.169.122-.058.3.437,1.008.851,1.341a2.384,2.384,0,0,0-.4-1.376.332.332,0,0,0-.262-.087Z" transform="translate(-325.891 -261.744)" fill="#407bff"/>
      <path id="Trazado_8281" data-name="Trazado 8281" d="M322.025,410.488a1.615,1.615,0,0,1-1.055-.268.583.583,0,0,1-.192-.5.338.338,0,0,1,.175-.274c.542-.3,2.279.583,2.477.694a.117.117,0,0,1,.052.111.1.1,0,0,1-.082.082,7.268,7.268,0,0,1-1.376.157Zm-.775-.9a.361.361,0,0,0-.192.041.122.122,0,0,0-.07.111.379.379,0,0,0,.117.332,2.78,2.78,0,0,0,1.953.117,5.671,5.671,0,0,0-1.807-.6Z" transform="translate(-310.786 -262.479)" fill="#407bff"/>
      <path id="Trazado_8282" data-name="Trazado 8282" d="M324.162,409.591h-.047c-.519-.233-1.551-1.166-1.469-1.673,0-.117.1-.262.391-.291a.769.769,0,0,1,.583.181,2.884,2.884,0,0,1,.653,1.685.1.1,0,0,1-.041.093.111.111,0,0,1-.07.006Zm-1.043-1.749h-.064c-.187,0-.2.093-.2.117-.047.3.653,1.038,1.166,1.358a2.425,2.425,0,0,0-.583-1.346A.542.542,0,0,0,323.119,407.843Z" transform="translate(-311.566 -261.745)" fill="#407bff"/>
      <path id="Trazado_8283" data-name="Trazado 8283" d="M331.962,179.3c-.169,2.635-.624,7.986,1.4,9.466,0,0-.367,2.7-5.141,3.328-5.246.682-2.85-2.279-2.85-2.279,2.78-1.061,2.425-3.177,1.667-5.112Z" transform="translate(-312.475 -166.509)" fill="#e4897b"/>
      <path id="Trazado_8284" data-name="Trazado 8284" d="M317.179,170.546a.2.2,0,0,1-.152-.07,1.65,1.65,0,0,0-1.37-.583.2.2,0,0,1-.239-.175.21.21,0,0,1,.181-.233,2.046,2.046,0,0,1,1.749.734.21.21,0,0,1-.157.344Z" transform="translate(-308.552 -162.412)" fill="#263238"/>
      <path id="Trazado_8285" data-name="Trazado 8285" d="M316.2,175.74a9.49,9.49,0,0,1-.95,2.39,1.5,1.5,0,0,0,1.277.07Z" transform="translate(-308.482 -165.024)" fill="#de5753"/>
      <path id="Trazado_8286" data-name="Trazado 8286" d="M316.687,174.225c.047.35-.1.653-.326.688s-.455-.233-.5-.583.1-.653.326-.682S316.646,173.852,316.687,174.225Z" transform="translate(-308.736 -164.15)" fill="#263238"/>
      <path id="Trazado_8287" data-name="Trazado 8287" d="M315.988,173.564l-.868-.134S315.633,174.03,315.988,173.564Z" transform="translate(-308.428 -164.06)" fill="#263238"/>
      <path id="Trazado_8288" data-name="Trazado 8288" d="M330.153,403.6h-4.372l-.291-10.113h4.372Z" transform="translate(-312.753 -255.85)" fill="#e4897b"/>
      <path id="Trazado_8289" data-name="Trazado 8289" d="M363.406,403.6h-4.372l-1.4-10.113H362Z" transform="translate(-326.159 -255.85)" fill="#e4897b"/>
      <path id="Trazado_8290" data-name="Trazado 8290" d="M355.091,410H360a.344.344,0,0,1,.344.3l.583,3.888a.7.7,0,0,1-.7.775c-1.708-.029-2.536-.128-4.692-.128-1.329,0-3.27.134-5.1.134s-1.929-1.813-1.166-1.976a8.483,8.483,0,0,0,5.112-2.722A1.166,1.166,0,0,1,355.091,410Z" transform="translate(-322.484 -262.737)" fill="#263238"/>
      <path id="Trazado_8291" data-name="Trazado 8291" d="M320.672,410h4.9a.35.35,0,0,1,.35.3l.583,3.888a.7.7,0,0,1-.7.775c-1.708-.029-2.536-.128-4.692-.128-1.329,0-4.08.134-5.91.134s-1.929-1.813-1.166-1.976a11.786,11.786,0,0,0,5.922-2.722A1.165,1.165,0,0,1,320.672,410Z" transform="translate(-307.789 -262.737)" fill="#263238"/>
      <path id="Trazado_8292" data-name="Trazado 8292" d="M325.49,393.49l.152,5.217h4.372l-.152-5.217Z" transform="translate(-312.753 -255.85)" fill="#ce6f64"/>
      <path id="Trazado_8293" data-name="Trazado 8293" d="M362,393.49H357.63l.729,5.217h4.366Z" transform="translate(-326.159 -255.85)" fill="#ce6f64"/>
      <path id="Trazado_8294" data-name="Trazado 8294" d="M328.51,165.951c.3,4.325.513,6.149-1.364,8.638-2.827,3.736-8.2,3.159-9.787-.991-1.428-3.736-1.673-10.177,2.3-12.439a5.916,5.916,0,0,1,8.848,4.791Z" transform="translate(-308.965 -158.615)" fill="#e4897b"/>
      <path id="Trazado_8295" data-name="Trazado 8295" d="M330.247,168.707c2.425,1.352,4.226-1.982,4.226-1.982s-4.348.472-3.958-2.116c.513-3.433-1.947-7.607-8.114-7.07-.344.029-.67.07-.991.122a3.171,3.171,0,0,0-3.835.886,3.259,3.259,0,0,0-2.506,4.99,2.535,2.535,0,0,1,.513-.857c.134,1.615,1.545,4.179,3.305,4.348.379,2.209-1.09,4.768-.583,7.076.752,3.328,6.365,4.08,6.365,4.08a2.431,2.431,0,0,1,.326-2.571c3.812,1.749,6.324.041,6.324.041-2.6-.968-1.813-2.693-1.813-2.693a3.8,3.8,0,0,0,4.949-1.8,4.477,4.477,0,0,1-4.208-2.454Z" transform="translate(-308.184 -157.355)" fill="#263238"/>
      <path id="Trazado_8296" data-name="Trazado 8296" d="M322.506,174.027a3.148,3.148,0,0,1-.874,2.256c-.769.8-1.714.239-1.97-.781-.227-.921-.1-2.442.9-2.862a1.422,1.422,0,0,1,1.941,1.387Z" transform="translate(-310.282 -163.689)" fill="#e4897b"/>
      <path id="Trazado_8297" data-name="Trazado 8297" d="M330.84,243.015s1.107,28.771,3.742,45.663c2.122,13.651,11.547,45.547,11.547,45.547h5.957s-4.914-30.806-5.992-44.3c-2.728-34.151,4.354-41.484-2.332-48.6Z" transform="translate(-314.985 -192.382)" fill="#2858ad"/>
      <path id="Trazado_8298" data-name="Trazado 8298" d="M336.327,259.822s-2.693-.466-4.267,4.663c.583,9.717,1.58,22.61,3.031,31.9.321,2.069.81,4.564,1.411,7.3C335.365,287.27,336.327,259.822,336.327,259.822Z" transform="translate(-315.494 -200.091)" fill="#26387a"/>
      <path id="Trazado_8299" data-name="Trazado 8299" d="M319.554,244.063s-4.908,31.831-4.622,45.15c.3,13.855,5.374,45.465,5.374,45.465h5.9s-.933-30.788-.414-44.393c.583-14.835,6.639-47.9,6.639-47.9Z" transform="translate(-308.344 -192.824)" fill="#2858ad"/>
      <path id="Trazado_8300" data-name="Trazado 8300" d="M362.659,399.278h-7.921l-.618-2.658,8.481.058Z" transform="translate(-324.695 -257.156)" fill="#407bff"/>
      <path id="Trazado_8301" data-name="Trazado 8301" d="M362.659,399.278h-7.921l-.618-2.658,8.481.058Z" transform="translate(-324.695 -257.156)" opacity="0.2"/>
      <path id="Trazado_8302" data-name="Trazado 8302" d="M349.455,195.541c2.279.221,5.741,6.7,5.741,6.7l-5.753,4.412s-4.762-4.179-4.2-6.528C345.835,197.68,347.269,195.337,349.455,195.541Z" transform="translate(-320.975 -173.278)" fill="#407bff"/>
      <path id="Trazado_8303" data-name="Trazado 8303" d="M349.455,195.541c2.279.221,5.741,6.7,5.741,6.7l-5.753,4.412s-4.762-4.179-4.2-6.528C345.835,197.68,347.269,195.337,349.455,195.541Z" transform="translate(-320.975 -173.278)" fill="#b6e9fe"/>
      <path id="Trazado_8304" data-name="Trazado 8304" d="M347.734,200.184a5.9,5.9,0,0,0-1.784-.2,9.854,9.854,0,0,0-.705,1.993c-.583,2.332,4.2,6.528,4.2,6.528l.426-.326Z" transform="translate(-320.973 -175.135)" fill="#407bff"/>
      <path id="Trazado_8305" data-name="Trazado 8305" d="M347.734,200.184a5.9,5.9,0,0,0-1.784-.2,9.854,9.854,0,0,0-.705,1.993c-.583,2.332,4.2,6.528,4.2,6.528l.426-.326Z" transform="translate(-320.973 -175.135)" fill="#6cb1ef" opacity="0.3"/>
      <path id="Trazado_8306" data-name="Trazado 8306" d="M312.9,209.749c-1.661,4.2-3.41,8.475-4.8,12.689-.093.268-.169.525-.251.787l-.2.647a1.067,1.067,0,0,0,0,.583,4.383,4.383,0,0,0,1.51,1.807,24.592,24.592,0,0,0,5.648,3.025l-.525,2.145a20.221,20.221,0,0,1-7.041-2.3,7.537,7.537,0,0,1-3.142-3.183,4.879,4.879,0,0,1-.4-2.775,3.245,3.245,0,0,1,.058-.344l.058-.245.1-.443c.07-.3.14-.583.216-.874.583-2.332,1.329-4.547,2.116-6.744s1.609-4.366,2.536-6.528Z" transform="translate(-303.639 -178.48)" fill="#e4897b"/>
      <path id="Trazado_8307" data-name="Trazado 8307" d="M313.282,198.56s-1.97,1,5.491,25.869l17.592-2.3c-1.236-7.123-1.819-11.535-.321-26.679a53.038,53.038,0,0,0-7.578,0,55.668,55.668,0,0,0-7.991,1.049C317.1,197.254,313.282,198.56,313.282,198.56Z" transform="translate(-307.563 -173.19)" fill="#407bff"/>
      <path id="Trazado_8308" data-name="Trazado 8308" d="M313.282,198.56s-1.97,1,5.491,25.869l17.592-2.3c-1.236-7.123-1.819-11.535-.321-26.679a53.038,53.038,0,0,0-7.578,0,55.668,55.668,0,0,0-7.991,1.049C317.1,197.254,313.282,198.56,313.282,198.56Z" transform="translate(-307.563 -173.19)" fill="#b6e9fe"/>
      <path id="Trazado_8309" data-name="Trazado 8309" d="M340.115,239.412l1.008,1.463c.076.117-.052.256-.251.286l-18.448,2.413c-.157,0-.3-.041-.326-.14l-.361-1.556c-.029-.1.1-.216.274-.239l17.813-2.332a.321.321,0,0,1,.291.1Z" transform="translate(-311.186 -191.537)" fill="#407bff"/>
      <path id="Trazado_8310" data-name="Trazado 8310" d="M340.115,239.412l1.008,1.463c.076.117-.052.256-.251.286l-18.448,2.413c-.157,0-.3-.041-.326-.14l-.361-1.556c-.029-.1.1-.216.274-.239l17.813-2.332a.321.321,0,0,1,.291.1Z" transform="translate(-311.186 -191.537)" opacity="0.2"/>
      <path id="Trazado_8311" data-name="Trazado 8311" d="M349.116,241.8l.478-.064c.093,0,.157-.07.146-.128l-.49-2.017a.169.169,0,0,0-.2-.082l-.478.058c-.1,0-.163.07-.146.134l.49,2.011C348.929,241.772,349.023,241.807,349.116,241.8Z" transform="translate(-322.32 -191.618)" fill="#2858ad"/>
      <path id="Trazado_8312" data-name="Trazado 8312" d="M329.276,244.353l.478-.064c.093,0,.163-.07.146-.128l-.49-2.017a.181.181,0,0,0-.2-.087l-.478.064c-.093,0-.163.07-.146.128l.49,2.017C329.089,244.353,329.183,244.388,329.276,244.353Z" transform="translate(-314.045 -192.683)" fill="#2858ad"/>
      <path id="Trazado_8313" data-name="Trazado 8313" d="M314.86,215.047c.484,2.25,1.166,5.1,2.163,8.708l.216-9.146Z" transform="translate(-308.32 -181.237)" fill="#407bff"/>
      <path id="Trazado_8314" data-name="Trazado 8314" d="M314.86,215.047c.484,2.25,1.166,5.1,2.163,8.708l.216-9.146Z" transform="translate(-308.32 -181.237)" fill="#6cb1ef" opacity="0.3"/>
      <path id="Trazado_8315" data-name="Trazado 8315" d="M310.53,200.473c-2.186.88-4.08,8.359-4.08,8.359l7.519,3.661s3.631-9.145,2.005-10.929S313.048,199.465,310.53,200.473Z" transform="translate(-304.812 -175.103)" fill="#407bff"/>
      <path id="Trazado_8316" data-name="Trazado 8316" d="M310.53,200.473c-2.186.88-4.08,8.359-4.08,8.359l7.519,3.661s3.631-9.145,2.005-10.929S313.048,199.465,310.53,200.473Z" transform="translate(-304.812 -175.103)" fill="#b6e9fe"/>
      <path id="Trazado_8317" data-name="Trazado 8317" d="M329.909,399.278h-7.921l-.618-2.658,8.819.058Z" transform="translate(-311.035 -257.156)" fill="#407bff"/>
      <path id="Trazado_8318" data-name="Trazado 8318" d="M329.909,399.278h-7.921l-.618-2.658,8.819.058Z" transform="translate(-311.035 -257.156)" opacity="0.2"/>
      <path id="Trazado_8319" data-name="Trazado 8319" d="M321.6,243.042l-.635-.262a.956.956,0,0,0-1.306,1.026l.46,3.037a1.038,1.038,0,0,0,1.376.828,2.332,2.332,0,0,0,.641-.356,1.749,1.749,0,0,0,.629-1.446l-.064-1.259A1.749,1.749,0,0,0,321.6,243.042Z" transform="translate(-310.318 -192.958)" fill="#e4897b"/>
    </g>
  </g>
</svg>